<svg width="50" height="34" viewBox="0 0 50 34" fill="none" xmlns="http://www.w3.org/2000/svg">
<path d="M39.1875 0.666672V6.97917H50V0.666672H39.1875ZM13.0625 9.45834V15.7646H23.8729V9.45834H13.0625ZM39.1875 9.45834V15.7646H50V9.45834H39.1875ZM13.0625 18.2375V24.5438H23.8729V18.2375H13.0625ZM26.1271 18.2375V24.5438H36.9396V18.2375H26.1271ZM39.1896 18.2375V24.5438H50V18.2375H39.1875H39.1896ZM0 27.0208V33.3313H10.8125V27.0188L0 27.0208ZM13.0625 27.0208V33.3313H23.8729V27.0188H13.0604L13.0625 27.0208ZM26.1271 27.0208V33.3313H36.9396V27.0188L26.1271 27.0208ZM39.1896 27.0208V33.3313H50V27.0188H39.1875L39.1896 27.0208Z" fill="#D87F25"/>
</svg>
